# xmcd
#
# Track frame offsets:
#	150
#	15312
#	31785
#	51852
#	68668
#	87118
#	110468
#	127361
#	143453
#	162785
#	177088
#	193189
#
# Disc length: 2763 seconds
#
# Revision: 1
# Processed by: cddbd v1.5.2PL0 Copyright (c) Steve Scherf et al.
# Submitted via: audiograbber 1.83.01
#
DISCID=950ac90c
DTITLE=Old Bull - Manifesto
DYEAR=2007
DGENRE=Country Rock
TTITLE0=Growerman
TTITLE1=When I Die
TTITLE2=Monsanto
TTITLE3=Zachary
TTITLE4=Lost Highway
TTITLE5=Just What I Gotta Do
TTITLE6=The Hard Part
TTITLE7=Green Money
TTITLE8=Tattoo Of Jesus
TTITLE9=Miracles
TTITLE10=Lullabye
TTITLE11=Dead In Your Grave
EXTD=
EXTT0=
EXTT1=
EXTT2=
EXTT3=
EXTT4=
EXTT5=
EXTT6=
EXTT7=
EXTT8=
EXTT9=
EXTT10=
EXTT11=
PLAYORDER=
